<?xml version="1.0" standalone="no"?><!DOCTYPE svg PUBLIC "-//W3C//DTD SVG 1.1//EN" "http://www.w3.org/Graphics/SVG/1.1/DTD/svg11.dtd"><svg t="1553069955050" class="icon" style="" viewBox="0 0 1265 1024" version="1.1" xmlns="http://www.w3.org/2000/svg" p-id="11072" xmlns:xlink="http://www.w3.org/1999/xlink" width="39.53125" height="32"><defs><style type="text/css"></style></defs><path d="M1043.425724 822.10448l-619.974878 0c-13.485382 0-18.137484-4.025517-31.946011-15.973991l-0.3261-0.288663L96.676628 539.406024c-6.620527-6.112165-10.409596-14.783872-10.395803-23.793503 0.013793-9.010616 3.828477-17.671486 10.466737-23.762962l0.146794-0.133987 293.445975-263.879215c13.910987-15.681387 25.894929-17.017315 36.066107-17.017315l617.019286 0c17.024211 0 30.875102 13.85089 30.875102 30.875102l0 549.537204C1074.300825 808.254575 1060.45092 822.10448 1043.425724 822.10448zM424.74835 782.696584l610.145564 0L1034.893914 250.226939 426.407423 250.226939c-0.876826 0-2.052166 0-2.542795 0.057141-0.355656 0.197039-1.840349 1.130021-4.51516 4.246201l-0.828551 0.964508L129.185187 515.676559l288.270733 260.795547C420.270628 778.9085 422.965143 781.237506 424.74835 782.696584zM929.232477 603.218245l-86.614615-86.352553 86.438265-86.701313c8.041181-8.065811 8.002759-21.104899-0.086697-29.123421l0 0c-8.089456-8.017537-21.165981-7.979114-29.208148 0.086697l-86.353538 86.615601-86.298367-86.03729c-8.065811-8.041181-21.104899-8.002759-29.123421 0.086697-8.017537 8.089456-7.979114 21.165981 0.086697 29.208148l86.212655 85.952563-86.036305 86.297382c-8.042166 8.065811-8.002759 21.104899 0.087683 29.123421l0 0c8.089456 8.017537 21.165981 7.979114 29.208148-0.086697l85.951578-86.212655 86.700328 86.438265c8.065811 8.042166 21.104899 8.002759 29.123421-0.087683l0 0C937.336711 624.335952 937.298288 611.259427 929.232477 603.218245z" p-id="11073" fill="#d81e06"></path></svg>